<?xml version="1.0" encoding="iso-8859-1"?>
<!-- Generator: Adobe Illustrator 18.1.1, SVG Export Plug-In . SVG Version: 6.00 Build 0)  -->
<svg version="1.1" id="Capa_1" xmlns="http://www.w3.org/2000/svg" xmlns:xlink="http://www.w3.org/1999/xlink" x="0px" y="0px"
	 viewBox="0 0 82.217 82.217" style="enable-background:new 0 0 82.217 82.217;" xml:space="preserve">
<g>
	<g>
		<path style="fill:#010002;" d="M70.908,27.665c0-8.138-7.097-8.138-13.353-8.138c-7.011,0-11.309-0.293-11.309-6.08h-2.054
			c0,8.135,7.1,8.135,13.363,8.135c7.004,0,11.298,0.293,11.298,6.084H0v41.107h82.217V27.665H70.908z M38.365,31.773h5.472v5.476
			h-5.472V31.773z M38.365,39.99h5.472v5.476h-5.472V39.99z M38.365,48.211h5.472v5.476h-5.472V48.211z M30.148,31.773h5.476v5.476
			h-5.476V31.773z M30.148,39.99h5.476v5.476h-5.476V39.99z M30.148,48.211h5.476v5.476h-5.476V48.211z M21.928,31.773h5.476v5.476
			h-5.476V31.773z M21.928,39.99h5.476v5.476h-5.476V39.99z M21.928,48.211h5.476v5.476h-5.476V48.211z M13.703,31.773h5.476v5.476
			h-5.476V31.773z M13.703,39.99h5.476v5.476h-5.476V39.99z M13.703,48.211h5.476v5.476h-5.476V48.211z M10.958,61.907H5.479v-5.472
			h5.479V61.907z M10.958,53.693H5.479v-5.476h5.479V53.693z M10.958,45.469H5.479v-5.476h5.479V45.469z M10.958,37.245H5.479
			v-5.476h5.479V37.245z M52.065,61.907H13.7v-5.472h38.369v5.472H52.065z M52.065,53.693h-5.479v-5.476h5.479V53.693z
			 M52.065,45.469h-5.479v-5.476h5.479V45.469z M52.065,37.245h-5.479v-5.476h5.479V37.245z M60.286,53.693h-5.479v-5.476h5.479
			V53.693z M60.286,45.469h-5.479v-5.476h5.479V45.469z M60.286,37.245h-5.479v-5.476h5.479V37.245z M68.506,45.469h-5.479v-5.476
			h5.479V45.469z M68.506,37.245h-5.479v-5.476h5.479V37.245z M76.731,53.693h-5.479v-5.476h5.479V53.693z M76.731,45.469h-5.479
			v-5.476h5.479V45.469z M76.731,37.245h-5.479v-5.476h5.479V37.245z"/>
	</g>
</g>
<g>
</g>
<g>
</g>
<g>
</g>
<g>
</g>
<g>
</g>
<g>
</g>
<g>
</g>
<g>
</g>
<g>
</g>
<g>
</g>
<g>
</g>
<g>
</g>
<g>
</g>
<g>
</g>
<g>
</g>
</svg>
