<?xml version="1.0" encoding="iso-8859-1"?>
<!-- Generator: Adobe Illustrator 19.0.0, SVG Export Plug-In . SVG Version: 6.00 Build 0)  -->
<svg version="1.1" id="Capa_1" xmlns="http://www.w3.org/2000/svg" xmlns:xlink="http://www.w3.org/1999/xlink" x="0px" y="0px"
	 viewBox="0 0 489.6 489.6" style="enable-background:new 0 0 489.6 489.6;" xml:space="preserve">
<g>
	<g>
		<polygon points="311.6,437.9 182.2,472.5 191.6,437.9 44.7,437.9 44.7,51.7 337.7,51.7 337.7,219.9 382.4,175.2 382.4,3.1 0,3.1 
			0,486.5 382.4,486.5 382.4,369.2 		"/>
		<polygon points="235.1,364.9 214.9,439.5 289.9,419.7 		"/>
		<polygon points="425.5,164.7 246.7,343.5 247.1,343.9 310.9,407.6 311.3,407.6 489.6,228.9 		"/>
		<path d="M292.6,105.3H91.7c-6.2,0-11.7,5.1-11.7,11.7c0,6.2,5.1,11.7,11.7,11.7h200.9c6.2,0,11.7-5.1,11.7-11.7
			C304.3,110.7,298.8,105.3,292.6,105.3z"/>
		<path d="M292.6,176.4H91.7c-6.2,0-11.7,5.1-11.7,11.7c0,6.2,5.1,11.7,11.7,11.7h200.9c6.2,0,11.7-5.1,11.7-11.7
			C304.3,181.8,298.8,176.4,292.6,176.4z"/>
		<path d="M304.3,259.2c0-6.2-5.1-11.7-11.7-11.7H91.7c-6.2,0-11.7,5.1-11.7,11.7c0,6.2,5.1,11.7,11.7,11.7h200.9
			C298.8,270.8,304.3,265.4,304.3,259.2z"/>
	</g>
</g>
<g>
</g>
<g>
</g>
<g>
</g>
<g>
</g>
<g>
</g>
<g>
</g>
<g>
</g>
<g>
</g>
<g>
</g>
<g>
</g>
<g>
</g>
<g>
</g>
<g>
</g>
<g>
</g>
<g>
</g>
</svg>
