<?xml version="1.0" encoding="iso-8859-1"?>
<!-- Generator: Adobe Illustrator 19.0.0, SVG Export Plug-In . SVG Version: 6.00 Build 0)  -->
<svg version="1.1" id="Layer_1" xmlns="http://www.w3.org/2000/svg" xmlns:xlink="http://www.w3.org/1999/xlink" x="0px" y="0px"
	 viewBox="0 0 475 475" style="enable-background:new 0 0 475 475;" xml:space="preserve">
<g transform="translate(0 -540.36)">
	<g>
		<g>
			<path d="M433.5,736.44c-22.9,0-41.5,18.6-41.5,41.5s18.6,41.5,41.5,41.5c22.9,0,41.5-18.6,41.5-41.5S456.4,736.44,433.5,736.44z
				 M433.5,804.44c-14.6,0-26.5-11.9-26.5-26.5s11.9-26.5,26.5-26.5c14.6,0,26.5,11.9,26.5,26.5S448.1,804.44,433.5,804.44z"/>
			<path d="M41.5,736.44c-22.9,0-41.5,18.6-41.5,41.5s18.6,41.5,41.5,41.5s41.5-18.6,41.5-41.5S64.4,736.44,41.5,736.44z
				 M41.5,804.44c-14.6,0-26.5-11.9-26.5-26.5s11.9-26.5,26.5-26.5s26.5,11.9,26.5,26.5S56.1,804.44,41.5,804.44z"/>
			<path d="M345.1,774.54l-67.5-135c-1.9-3.7-6.4-5.2-10.1-3.4c-3.7,1.9-5.2,6.4-3.4,10.1l62.1,124.1H136.6c-4.1,0-7.5,3.4-7.5,7.5
				s3.4,7.5,7.5,7.5h189.6l-62.1,124.1c-1.9,3.7-0.4,8.2,3.4,10.1c1.1,0.5,2.2,0.8,3.3,0.8c2.8,0,5.4-1.5,6.7-4.1l67.5-135
				C346.1,779.14,346.1,776.74,345.1,774.54L345.1,774.54z"/>
		</g>
	</g>
</g>
<g>
</g>
<g>
</g>
<g>
</g>
<g>
</g>
<g>
</g>
<g>
</g>
<g>
</g>
<g>
</g>
<g>
</g>
<g>
</g>
<g>
</g>
<g>
</g>
<g>
</g>
<g>
</g>
<g>
</g>
</svg>
