<?xml version="1.0" encoding="iso-8859-1"?>
<!-- Generator: Adobe Illustrator 18.0.0, SVG Export Plug-In . SVG Version: 6.00 Build 0)  -->
<!DOCTYPE svg PUBLIC "-//W3C//DTD SVG 1.1//EN" "http://www.w3.org/Graphics/SVG/1.1/DTD/svg11.dtd">
<svg version="1.1" id="Capa_1" xmlns="http://www.w3.org/2000/svg" xmlns:xlink="http://www.w3.org/1999/xlink" x="0px" y="0px"
	 viewBox="0 0 58 58" style="enable-background:new 0 0 58 58;" xml:space="preserve">
<g>
	<path d="M47.094,44.32l4.613-4.613c0.391-0.391,0.391-1.023,0-1.414s-1.023-0.391-1.414,0l-4.594,4.594
		c-0.202-0.253-0.51-0.415-0.861-0.383c-0.245,0.023-0.453,0.142-0.613,0.306l-4.518-4.518c-0.391-0.391-1.023-0.391-1.414,0
		s-0.391,1.023,0,1.414l4.613,4.613C40.066,45.213,38,47.87,38,51c0,3.859,3.14,7,7,7s7-3.141,7-7
		C52,47.87,49.934,45.213,47.094,44.32z M45,56c-2.757,0-5-2.243-5-5s2.243-5,5-5s5,2.243,5,5S47.757,56,45,56z"/>
	<path d="M12,13.92v0.58c0,0.553,0.448,1,1,1c0.013,0,0.023-0.007,0.036-0.007c0.011,0,0.021,0.006,0.033,0.006
		c0.031,0,0.062-0.001,0.094-0.004c0.55-0.052,0.954-0.539,0.903-1.089c-0.015-0.162-0.013-0.328-0.023-0.493
		C17.408,13.408,20,10.504,20,7c0-3.859-3.14-7-7-7S6,3.141,6,7C6,10.519,8.613,13.432,12,13.92z M13,2c2.757,0,5,2.243,5,5
		s-2.243,5-5,5S8,9.757,8,7S10.243,2,13,2z"/>
	<path d="M13,37.528c-0.552,0-1,0.447-1,1v1.657c0,0.553,0.448,1,1,1s1-0.447,1-1v-1.657C14,37.976,13.552,37.528,13,37.528z"/>
	<path d="M14,33.557c0-0.553-0.448-1-1-1s-1,0.447-1,1v1.657c0,0.553,0.448,1,1,1s1-0.447,1-1V33.557z"/>
	<path d="M14,22.786c0-0.553-0.448-1-1-1s-1,0.447-1,1v1.657c0,0.553,0.448,1,1,1s1-0.447,1-1V22.786z"/>
	<path d="M14,27.758c0-0.553-0.448-1-1-1s-1,0.447-1,1v2.485c0,0.553,0.448,1,1,1s1-0.447,1-1V27.758z"/>
	<path d="M41.029,36.03c0.196,0.263,0.497,0.401,0.802,0.401c0.208,0,0.418-0.064,0.598-0.199c0.442-0.33,0.533-0.957,0.202-1.399
		c-0.369-0.494-0.77-0.974-1.19-1.426c-0.378-0.403-1.009-0.426-1.414-0.05c-0.404,0.376-0.427,1.009-0.05,1.413
		C40.348,35.17,40.702,35.594,41.029,36.03z"/>
	<path d="M42.689,38.853c0.223,0.496,0.421,1.012,0.588,1.529c0.137,0.424,0.529,0.693,0.952,0.693c0.102,0,0.205-0.016,0.307-0.048
		c0.525-0.17,0.814-0.733,0.645-1.259c-0.189-0.588-0.414-1.172-0.667-1.736c-0.226-0.503-0.819-0.729-1.322-0.502
		C42.688,37.757,42.463,38.349,42.689,38.853z"/>
	<path d="M14.818,20.487c0.503-0.227,0.728-0.819,0.5-1.322c-0.223-0.495-0.422-1.009-0.59-1.529
		c-0.164-0.506-0.693-0.781-1.201-0.649c-0.155-0.099-0.33-0.172-0.528-0.172c-0.552,0-1,0.447-1,1v1.657c0,0.553,0.448,1,1,1
		c0.249,0,0.47-0.1,0.645-0.251c0.191,0.226,0.471,0.356,0.762,0.356C14.545,20.576,14.685,20.548,14.818,20.487z"/>
	<path d="M32.701,28.402c-0.609-0.135-1.227-0.236-1.836-0.301c-0.544-0.06-1.042,0.339-1.1,0.888
		c-0.059,0.55,0.339,1.042,0.888,1.101c0.535,0.058,1.079,0.146,1.615,0.266c0.073,0.016,0.146,0.023,0.217,0.023
		c0.458,0,0.872-0.317,0.976-0.784C33.58,29.056,33.24,28.522,32.701,28.402z"/>
	<path d="M16.574,24.607c0.197,0.211,0.463,0.317,0.73,0.317c0.245,0,0.49-0.089,0.683-0.27c0.404-0.377,0.425-1.01,0.048-1.413
		c-0.373-0.399-0.728-0.822-1.053-1.258c-0.331-0.44-0.957-0.533-1.4-0.201c-0.442,0.331-0.532,0.958-0.202,1.4
		C15.75,23.676,16.151,24.155,16.574,24.607z"/>
	<path d="M38.889,32.378c0.313-0.455,0.198-1.078-0.257-1.391c-0.769-0.53-1.583-0.996-2.419-1.387
		c-0.5-0.232-1.095-0.019-1.329,0.483c-0.233,0.5-0.017,1.096,0.483,1.329c0.736,0.344,1.453,0.754,2.131,1.221
		c0.173,0.12,0.371,0.177,0.566,0.177C38.382,32.811,38.695,32.659,38.889,32.378z"/>
	<path d="M22.653,26.598c-0.742-0.347-1.459-0.757-2.134-1.219c-0.456-0.313-1.077-0.197-1.391,0.259
		c-0.313,0.455-0.196,1.077,0.259,1.39c0.765,0.525,1.579,0.99,2.42,1.383c0.137,0.063,0.28,0.094,0.422,0.094
		c0.376,0,0.737-0.213,0.907-0.577C23.37,27.427,23.153,26.831,22.653,26.598z"/>
	<path d="M27.371,27.913c-0.539-0.058-1.083-0.146-1.617-0.264c-0.538-0.116-1.072,0.223-1.191,0.762
		c-0.119,0.54,0.223,1.073,0.762,1.191c0.605,0.133,1.223,0.233,1.835,0.299c0.036,0.004,0.072,0.006,0.107,0.006
		c0.504,0,0.938-0.381,0.993-0.894C28.318,28.464,27.92,27.972,27.371,27.913z"/>
	<path d="M19.707,38.293c-0.391-0.391-1.023-0.391-1.414,0l-4.551,4.551C13.559,42.637,13.298,42.5,13,42.5
		s-0.559,0.137-0.742,0.344l-4.551-4.551c-0.391-0.391-1.023-0.391-1.414,0s-0.391,1.023,0,1.414l4.613,4.613
		C8.066,45.213,6,47.87,6,51c0,3.859,3.14,7,7,7s7-3.141,7-7c0-3.13-2.066-5.787-4.906-6.68l4.613-4.613
		C20.098,39.316,20.098,38.684,19.707,38.293z M18,51c0,2.757-2.243,5-5,5s-5-2.243-5-5s2.243-5,5-5S18,48.243,18,51z"/>
</g>
<g>
</g>
<g>
</g>
<g>
</g>
<g>
</g>
<g>
</g>
<g>
</g>
<g>
</g>
<g>
</g>
<g>
</g>
<g>
</g>
<g>
</g>
<g>
</g>
<g>
</g>
<g>
</g>
<g>
</g>
</svg>
